<svg width="32" height="32" viewBox="0 0 32 32" fill="none" xmlns="http://www.w3.org/2000/svg">
<path d="M26.9742 16.514L30.7392 14.524C30.6606 13.7958 30.5279 13.0745 30.3422 12.366L26.1602 11.786C25.8002 10.916 25.3202 10.106 24.7602 9.364L26.3532 5.444C25.8272 4.93349 25.2636 4.46317 24.6672 4.037L21.1172 6.267C20.2832 5.827 19.3872 5.497 18.4442 5.282L17.1602 1.306C16.7972 1.279 16.4332 1.25 16.0622 1.25C15.6912 1.25 15.3282 1.278 14.9622 1.306L13.6922 5.246C12.7252 5.454 11.8082 5.79 10.9542 6.233L7.45818 4.037C6.86318 4.467 6.29818 4.932 5.77318 5.443L7.32318 9.255C6.71918 10.03 6.21318 10.885 5.83318 11.805L1.78318 12.365C1.59772 13.0731 1.46568 13.7941 1.38818 14.522L5.02318 16.445C5.06318 17.458 5.23318 18.439 5.52918 19.363L2.78618 22.395C3.10618 23.055 3.46018 23.698 3.87118 24.3L7.90818 23.433C8.56818 24.153 9.32318 24.783 10.1552 25.306L10.0022 29.436C10.6652 29.736 11.3542 29.986 12.0642 30.186L14.6182 26.903C15.0712 26.961 15.5302 27 15.9982 27C16.5052 27 17.0012 26.954 17.4882 26.887L20.0562 30.187C20.7662 29.987 21.4562 29.737 22.1182 29.439L21.9622 25.233C22.7522 24.7204 23.4734 24.1087 24.1082 23.413L28.2502 24.301C28.6586 23.6938 29.0213 23.057 29.3352 22.396L26.5052 19.266C26.7752 18.39 26.9282 17.466 26.9722 16.513L26.9742 16.514ZM20.7172 21.297L18.9322 22.459L17.8342 20.771C17.2499 21.001 16.6281 21.1207 16.0002 21.124C14.8143 21.1245 13.665 20.7139 12.7479 19.962C11.8309 19.2101 11.2029 18.1636 10.9709 17.0006C10.739 15.8376 10.9174 14.6302 11.4759 13.5841C12.0343 12.538 12.9382 11.7178 14.0335 11.2633C15.1289 10.8089 16.3479 10.7483 17.4829 11.0918C18.6179 11.4353 19.5987 12.1618 20.2582 13.1474C20.9177 14.1329 21.215 15.3167 21.0996 16.4969C20.9842 17.6772 20.4631 18.7809 19.6252 19.62L20.7172 21.297Z" fill="#E4BF01"/>
</svg>
