<svg width="30" height="30" viewBox="0 0 30 30" fill="none" xmlns="http://www.w3.org/2000/svg">
<path d="M19.5083 21.0411C19.3261 21.0436 19.1482 20.9862 19.0017 20.8779C18.8552 20.7696 18.7482 20.6163 18.6972 20.4414C18.6461 20.2665 18.6538 20.0797 18.719 19.9096C18.7842 19.7395 18.9034 19.5954 19.0583 19.4995C19.8166 19.0262 20.4393 18.3645 20.8659 17.579C21.2925 16.7935 21.5083 15.9109 21.4923 15.0171C21.4764 14.1234 21.2292 13.249 20.7749 12.4792C20.3206 11.7094 19.6746 11.0704 18.8999 10.6245C18.8004 10.5724 18.7123 10.5007 18.6412 10.4137C18.57 10.3267 18.5172 10.2262 18.4859 10.1183C18.4546 10.0103 18.4454 9.89715 18.459 9.78558C18.4725 9.67401 18.5085 9.56634 18.5647 9.46903C18.621 9.37173 18.6963 9.2868 18.7862 9.21938C18.8762 9.15195 18.9788 9.1034 19.088 9.07666C19.1971 9.04992 19.3106 9.04554 19.4215 9.06378C19.5324 9.08202 19.6384 9.12251 19.7333 9.1828C20.7532 9.77422 21.603 10.6192 22.2002 11.6357C22.7975 12.6522 23.1219 13.8058 23.142 14.9847C23.1621 16.1635 22.8773 17.3275 22.3151 18.3638C21.7529 19.4001 20.9324 20.2736 19.9333 20.8995C19.8072 20.9846 19.6602 21.0336 19.5083 21.0411Z" fill="#E4BF01"/>
<path d="M21.3499 25.9835C21.1633 25.9824 20.9825 25.9187 20.8364 25.8026C20.6903 25.6865 20.5874 25.5248 20.5442 25.3432C20.501 25.1617 20.5199 24.9709 20.598 24.8014C20.6761 24.632 20.8089 24.4936 20.9749 24.4085C22.7231 23.5472 24.193 22.2104 25.2162 20.5518C26.2393 18.8931 26.7741 16.9796 26.7593 15.0308C26.7445 13.082 26.1807 11.1768 25.1325 9.53383C24.0844 7.89085 22.5943 6.57661 20.8333 5.74187C20.7317 5.6962 20.6403 5.63064 20.5644 5.54904C20.4886 5.46745 20.4299 5.37148 20.3918 5.26681C20.3537 5.16214 20.337 5.0509 20.3426 4.93965C20.3482 4.82841 20.3761 4.71942 20.4246 4.61913C20.4731 4.51884 20.5412 4.42929 20.6248 4.35577C20.7085 4.28224 20.8061 4.22624 20.9118 4.19107C21.0174 4.1559 21.1291 4.14227 21.2402 4.151C21.3512 4.15972 21.4594 4.19062 21.5583 4.24187C23.6038 5.20755 25.3357 6.73023 26.5554 8.63527C27.7751 10.5403 28.4331 12.7505 28.4539 15.0125C28.4748 17.2744 27.8577 19.4964 26.6734 21.4236C25.4892 23.3509 23.7856 24.9053 21.7583 25.9085C21.6307 25.9676 21.4902 25.9934 21.3499 25.9835Z" fill="#E4BF01"/>
<path d="M15.2751 3.33305L7.55843 9.99972H2.55843C2.33742 9.99972 2.12546 10.0875 1.96918 10.2438C1.81289 10.4001 1.7251 10.612 1.7251 10.833V19.0997C1.7251 19.3207 1.81289 19.5327 1.96918 19.689C2.12546 19.8453 2.33742 19.933 2.55843 19.933H7.4001L15.2834 26.7997C15.4027 26.9045 15.5494 26.9731 15.7063 26.9974C15.8632 27.0216 16.0237 27.0006 16.1691 26.9367C16.3144 26.8727 16.4385 26.7686 16.5266 26.6366C16.6148 26.5046 16.6634 26.3501 16.6668 26.1914V3.93305C16.6632 3.77345 16.6139 3.61822 16.5247 3.48583C16.4355 3.35344 16.3102 3.24946 16.1636 3.18626C16.017 3.12305 15.8553 3.10329 15.6978 3.12931C15.5403 3.15533 15.3936 3.22605 15.2751 3.33305Z" fill="#E4BF01"/>
</svg>
