<svg width="108" height="145" viewBox="0 0 108 145" fill="none" xmlns="http://www.w3.org/2000/svg">
<path d="M30.8094 0C30.5757 0 30.3515 0.038563 30.1274 0.069893V0H5.21524C3.83271 0 2.50681 0.549207 1.52922 1.5268C0.55162 2.5044 0.00240868 3.8303 0.00240868 5.21283V5.22488H0V139.566H0.00240868L0 139.587C0 142.465 2.33529 144.798 5.21283 144.798H30.807C32.1889 144.798 33.5142 144.249 34.4914 143.272C35.4685 142.294 36.0175 140.969 36.0175 139.587L36.015 139.566H36.0175V5.22488L36.0199 5.21283C36.0199 3.83072 35.471 2.50518 34.4939 1.52766C33.5168 0.550131 32.1915 0.000638979 30.8094 0V0Z" fill="#E4BF01"/>
<path d="M107.255 139.566V5.22488L107.257 5.21283C107.257 3.83072 106.708 2.50518 105.731 1.52766C104.754 0.550131 103.429 0.000638979 102.047 0C101.813 0 101.589 0.038563 101.365 0.069893V0H76.4525C75.07 0 73.7441 0.549207 72.7665 1.5268C71.7889 2.5044 71.2397 3.8303 71.2397 5.21283V5.22488H71.2373V139.566H71.2397L71.2373 139.587C71.2373 142.465 73.5726 144.798 76.4501 144.798H102.04C103.421 144.798 104.747 144.249 105.724 143.272C106.701 142.294 107.25 140.969 107.25 139.587C107.255 139.58 107.252 139.573 107.255 139.566Z" fill="#E4BF01"/>
</svg>
